<?xml version="1.0" standalone="no"?><!DOCTYPE svg PUBLIC "-//W3C//DTD SVG 1.1//EN" "http://www.w3.org/Graphics/SVG/1.1/DTD/svg11.dtd"><svg t="1675324830355" class="icon" viewBox="0 0 1024 1024" version="1.1" xmlns="http://www.w3.org/2000/svg" p-id="8307" xmlns:xlink="http://www.w3.org/1999/xlink" width="14" height="14"><path d="M977.3 568.8c-13-34.2-29.6-66.6-49.5-96.8-8.7-13.2-18-26-27.9-38.3-22.7-28.3-48.5-54.1-76.8-76.8-12.3-9.9-25.1-19.2-38.3-27.9-30.1-19.8-62.5-36.5-96.8-49.5a484.8 484.8 0 0 0-45.1-14.7c-34.5-9.4-70.4-15.3-107.4-17a468.6 468.6 0 0 0-47.4 0c-37 1.7-72.9 7.6-107.4 17-15.3 4.2-30.4 9.1-45.1 14.7-34.2 13-66.6 29.6-96.8 49.5-13.2 8.7-26 18-38.3 27.9-28.3 22.7-54.1 48.5-76.8 76.8-9.9 12.3-19.2 25.1-27.9 38.3-19.8 30.1-36.5 62.5-49.5 96.8a484.8 484.8 0 0 0-14.7 45.1l15.7 4.6L313.9 696l15.7 4.6 117.9 34.3 32.5 9.4c0 0.2-0.1 0.5-0.1 0.7 0 17.5 14.3 31.8 31.8 31.8s31.8-14.3 31.8-31.8c0-0.3-0.1-0.5-0.1-0.7l32.5-9.4 117.9-34.3 15.7-4.6 266.6-77.5 15.7-4.6c-4-15.4-8.9-30.4-14.5-45.1zM770.7 375.3c2.6-3.7 7.7-4.5 11.4-1.8 3.6 2.6 4.5 7.7 1.8 11.4L655.2 562.1c-1.6 2.2-4.1 3.4-6.6 3.4-1.7 0-3.3-0.5-4.8-1.6-3.6-2.6-4.5-7.7-1.8-11.4l128.7-177.2zM576.1 521.6l67.6-208.1c1.4-4.3 6-6.6 10.3-5.2 4.3 1.4 6.6 6 5.2 10.3l-67.6 208.1c-1.1 3.5-4.3 5.6-7.8 5.6-0.8 0-1.7-0.1-2.5-0.4-4.2-1.4-6.6-6-5.2-10.3z m-72.3-227.7c0-4.5 3.6-8.2 8.2-8.2 4.5 0 8.2 3.6 8.2 8.2v218.9c0 4.5-3.6 8.2-8.2 8.2-4.5 0-8.2-3.6-8.2-8.2V293.9zM370 308.2c4.3-1.4 8.9 0.9 10.3 5.2L448 521.7c1.4 4.3-1 8.9-5.2 10.3-0.8 0.3-1.7 0.4-2.5 0.4-3.4 0-6.6-2.2-7.8-5.6l-67.7-208.3c-1.4-4.3 0.9-8.9 5.2-10.3z m-128.1 65.3c3.7-2.6 8.7-1.8 11.4 1.8L382 552.5c2.7 3.6 1.8 8.7-1.8 11.4-1.4 1.1-3.1 1.6-4.8 1.6-2.5 0-5-1.2-6.6-3.4L240.1 384.9c-2.7-3.6-1.9-8.7 1.8-11.4z m88.7 240c-1.6 2.2-4.1 3.4-6.6 3.4-1.7 0-3.3-0.5-4.8-1.6L142 486.6c-3.6-2.6-4.5-7.7-1.8-11.4 2.6-3.7 7.7-4.5 11.4-1.8l177.2 128.7c3.6 2.7 4.4 7.8 1.8 11.4z m7.9 60.3c3.9-9.6 8.7-18.7 14.2-27.4l101.5 69-115.7-41.6z m30.5-50.1c6.7-7.8 13.9-15.1 21.8-21.8l75.3 97.1-97.1-75.3z m44.5-38.2c8.7-5.4 17.8-10.2 27.4-14.2L482.5 687l-69-101.5z m54.1-22.7c9.9-2.4 20-4.1 30.4-4.8l3.8 122.8-34.2-118zM512 760.4c-8.5 0-15.5-6.9-15.5-15.5s6.9-15.5 15.5-15.5c8.5 0 15.5 6.9 15.5 15.5s-7 15.5-15.5 15.5z m10.2-79.6L526 558c10.4 0.8 20.6 2.4 30.4 4.8l-34.2 118z m19.3 6.2l41.6-115.7c9.6 3.9 18.7 8.7 27.4 14.1l-69 101.6z m91.7-85.1c7.8 6.7 15.1 13.9 21.8 21.8L557.9 699l75.3-97.1z m-63.3 113.5l101.5-69c5.4 8.7 10.2 17.8 14.2 27.4l-115.7 41.6zM882 486.6L704.9 615.3c-1.4 1.1-3.1 1.6-4.8 1.6-2.5 0-5-1.2-6.6-3.4-2.7-3.6-1.8-8.7 1.8-11.4l177.1-128.7c3.6-2.6 8.7-1.8 11.4 1.8 2.6 3.6 1.8 8.7-1.8 11.4z" fill="#515151" p-id="8308"></path></svg>