<?xml version="1.0" standalone="no"?><!DOCTYPE svg PUBLIC "-//W3C//DTD SVG 1.1//EN" "http://www.w3.org/Graphics/SVG/1.1/DTD/svg11.dtd"><svg t="1708502189592" class="icon" viewBox="0 0 1835 1024" version="1.1" xmlns="http://www.w3.org/2000/svg" p-id="12591" width="25.087890625" height="14" xmlns:xlink="http://www.w3.org/1999/xlink"><path d="M885.568615 0.547977C716.209871-9.583528 634.032106 123.627005 613.143693 163.902865c-93.935315-8.755622-167.357459 8.755622-217.764824 52.783892-64.1662 55.9109-66.542726 133.085453-66.542727 136.337541-6.003855 202.129785 181.241373 216.0137 183.242659 216.013701 67.668449 2.751767 119.82694-12.758192 155.349748-46.029556 42.777467-40.15078 44.653672-91.183548 44.653672-93.309913-1.375883-94.060395-71.545939-121.578064-108.319551-123.079028-59.91347-2.376526-88.807022 40.651102-89.932745 42.527307-5.253373 8.00514-3.001928 18.762047 5.003212 24.1405 8.00514 5.378453 18.887127 3.127008 24.265581-4.753052 0.750482-1.250803 19.762689-28.393231 59.288068-26.892267 7.504819 0.375241 73.547224 6.128935 74.798027 87.806379 0 0-2.001285 38.649817-34.021845 68.293851-28.393231 26.391946-71.92118 38.524736-129.207963 36.273291-5.878775-0.375241-154.974508-12.257871-149.971295-180.240731 0-0.750482 2.376526-65.667164 54.910258-111.196398 44.903832-38.899977 113.197683-53.409294 202.755187-43.027627l13.133432 1.500963 5.128293-12.13279c2.876847-6.754337 70.670377-163.85521 244.782172-153.473544 2.251446 0 130.458766 1.751124 187.495389 107.81923l8.505462 15.885199 15.635039-9.005782c0.625402-0.375241 66.042405-37.524094 150.721777-30.644677 6.128935 0.625402 155.474829 17.136003 150.971937 172.735912-0.375241 6.504176-12.758192 173.111153-169.108583 165.231094-2.126365 0-67.418289 1.500964-105.067463-36.648532-19.262368-19.387448-28.268151-46.529876-26.892267-80.676802 0-0.875562 1.000643-40.901262 27.267508-58.537586 19.137288-13.008353 48.406081-12.00771 87.055898 2.751767 9.005783 3.502249 19.137288-1.000643 22.639537-10.131506 3.502249-9.005783-1.000643-19.137288-10.131506-22.639536-50.032125-19.137288-90.182906-18.762047-119.451698 1.125722-41.401584 28.14307-42.402226 84.179051-42.402226 86.555577-1.751124 43.778109 10.756907 79.80124 37.148853 106.443346 48.531161 48.906402 126.206036 46.905117 129.458123 46.780037 189.871915 9.631184 204.381231-196.626252 204.506312-198.627537 5.503534-189.246513-180.991213-209.009203-182.867418-209.134283C1177.881306 78.848253 1119.4688 100.612227 1093.452094 112.619937 1023.156959 2.924503 891.447389 0.673057 885.568615 0.547977z" fill="#515151" p-id="12592"></path><path d="M0 655.093254s939.85347 215.263218 795.010468-331.58791c0 0-35.647889 5.628614-34.397086 5.128293 0 0 199.87834 496.318681-760.488302 326.459617H0z" fill="#515151" p-id="12593"></path><path d="M122.828867 729.51604s857.050303 182.992498 776.373502-430.651517l-40.0257 5.503534S1006.146036 858.598923 122.953947 729.51604z" fill="#515151" p-id="12594"></path><path d="M382.120356 773.66939s699.324029 77.925035 621.649154-467.92545l-37.774254 2.876847s104.06682 498.069806-583.8749 465.048603z" fill="#515151" p-id="12595"></path><path d="M1438.048356 459.342564c-123.079028-7.379738-182.867417 89.432424-198.002135 118.701217-68.293851-6.379096-121.578064 6.379096-158.226596 38.399656-46.654957 40.651102-48.281001 96.687082-48.406081 99.063608-4.377811 146.844287 131.709569 156.975793 133.085453 156.975792 49.156563 2.001285 87.055898-9.255943 112.947523-33.521523 31.144998-29.143713 32.395801-66.292566 32.395801-67.79353-1.000643-68.418931-52.03341-88.306701-78.800597-89.432424-43.527949-1.751124-64.541441 29.518954-65.417004 30.894838-3.87749 5.878775-2.251446 13.633754 3.627329 17.511243 5.753694 3.87749 13.758834 2.376526 17.636324-3.502248 0.625402-0.875562 14.384236-20.638252 43.152708-19.512529 5.378453 0.250161 53.409294 4.377811 54.409936 63.790959 0 0-1.500964 28.14307-24.765902 49.656885-20.638252 19.137288-52.283571 28.01799-93.935315 26.391946-4.252731-0.250161-112.697362-8.880702-108.944952-130.959088 0-0.500321 1.751124-47.780679 39.90062-80.801882 32.645962-28.268151 82.302846-38.899977 147.344608-31.270078l9.506104 1.125723 3.752409-8.880703c2.001285-4.878132 51.282928-119.076458 177.864205-111.571639 1.626044 0 94.810877 1.250803 136.337541 78.300276l6.254016 11.632469 11.382308-6.629256s48.03084-27.267508 109.570354-22.264296c4.377811 0.375241 112.947522 12.508031 109.695434 125.580634-0.250161 4.753052-9.255943 125.830795-122.953947 120.0771-1.500964 0-49.031483 1.000643-76.424071-26.642106-14.008995-14.134075-20.513171-33.896765-19.512529-58.662667 0-0.625402 0.750482-29.644034 19.88777-42.652387 13.883915-9.381023 35.272648-8.755622 63.290638 2.001285 6.504176 2.501606 13.883915-0.750482 16.385521-7.379738 2.501606-6.504176-0.750482-13.883915-7.379738-16.385521-36.398371-13.883915-65.542084-13.633754-86.805738 0.750482-30.144355 20.513171-30.769757 61.164273-30.894837 62.915397-1.250803 31.89548 7.88006 58.037265 27.017348 77.299633 35.272648 35.522809 91.683869 34.146925 94.060395 34.021846 137.963585 7.004498 148.470331-142.841717 148.595412-144.342681 4.00257-137.463264-131.584489-151.8475-132.960373-151.97258-52.533731-4.252731-94.935957 11.632469-113.948165 20.26301-51.032768-79.676159-146.719207-81.427284-150.971937-81.427283z" fill="#515151" p-id="12596"></path><path d="M794.385067 935.022994s683.063588 156.475471 577.745964-241.029763c0 0-25.891625 4.00257-25.016062 3.752409 0 0 145.343323 360.731622-552.729902 237.277354z" fill="#515151" p-id="12597"></path><path d="M883.69241 989.057689s622.774877 132.960373 564.237291-312.950943l-29.143713 4.00257s106.818587 402.758607-535.093578 308.948373z" fill="#515151" p-id="12598"></path><path d="M1072.063361 1021.203329s508.201311 56.661382 451.79009-340.09337l-27.392589 2.126365s75.673589 361.982425-424.272421 337.967005z" fill="#515151" p-id="12599"></path></svg>